<mxfile host="app.diagrams.net" modified="2021-08-07T09:08:49.490Z" agent="5.0 (Macintosh; Intel Mac OS X 10_15_7) AppleWebKit/537.36 (KHTML, like Gecko) Chrome/92.0.4515.131 Safari/537.36" etag="nzX_aMW0RWZj-FRwJIc-" version="14.9.5" type="github">
  <diagram name="Page-1" id="74e2e168-ea6b-b213-b513-2b3c1d86103e">
    <mxGraphModel dx="1186" dy="1356" grid="1" gridSize="10" guides="1" tooltips="1" connect="1" arrows="1" fold="1" page="1" pageScale="1" pageWidth="1100" pageHeight="850" background="none" math="0" shadow="0">
      <root>
        <mxCell id="0" />
        <mxCell id="1" parent="0" />
        <mxCell id="YWpj-uhHsnXuFDOrqdvi-23" value="" style="rounded=0;whiteSpace=wrap;html=1;" vertex="1" parent="1">
          <mxGeometry x="250" y="-80" width="620" height="415" as="geometry" />
        </mxCell>
        <mxCell id="YWpj-uhHsnXuFDOrqdvi-16" style="edgeStyle=orthogonalEdgeStyle;rounded=0;orthogonalLoop=1;jettySize=auto;html=1;exitX=0.5;exitY=1;exitDx=0;exitDy=0;" edge="1" parent="1" source="YWpj-uhHsnXuFDOrqdvi-2" target="YWpj-uhHsnXuFDOrqdvi-6">
          <mxGeometry relative="1" as="geometry" />
        </mxCell>
        <mxCell id="YWpj-uhHsnXuFDOrqdvi-17" style="edgeStyle=orthogonalEdgeStyle;rounded=0;orthogonalLoop=1;jettySize=auto;html=1;exitX=0.5;exitY=1;exitDx=0;exitDy=0;entryX=0.5;entryY=0;entryDx=0;entryDy=0;" edge="1" parent="1" source="YWpj-uhHsnXuFDOrqdvi-2" target="YWpj-uhHsnXuFDOrqdvi-15">
          <mxGeometry relative="1" as="geometry" />
        </mxCell>
        <mxCell id="YWpj-uhHsnXuFDOrqdvi-2" value="工具创建" style="rounded=1;whiteSpace=wrap;html=1;fontSize=12;glass=0;strokeWidth=1;shadow=0;" vertex="1" parent="1">
          <mxGeometry x="440" y="40" width="120" height="40" as="geometry" />
        </mxCell>
        <mxCell id="YWpj-uhHsnXuFDOrqdvi-14" style="edgeStyle=orthogonalEdgeStyle;rounded=0;orthogonalLoop=1;jettySize=auto;html=1;exitX=1;exitY=0.5;exitDx=0;exitDy=0;entryX=0;entryY=0.5;entryDx=0;entryDy=0;" edge="1" parent="1" source="YWpj-uhHsnXuFDOrqdvi-6" target="YWpj-uhHsnXuFDOrqdvi-13">
          <mxGeometry relative="1" as="geometry" />
        </mxCell>
        <mxCell id="YWpj-uhHsnXuFDOrqdvi-18" style="edgeStyle=orthogonalEdgeStyle;rounded=0;orthogonalLoop=1;jettySize=auto;html=1;exitX=0.5;exitY=1;exitDx=0;exitDy=0;entryX=0.5;entryY=0;entryDx=0;entryDy=0;" edge="1" parent="1" source="YWpj-uhHsnXuFDOrqdvi-6" target="YWpj-uhHsnXuFDOrqdvi-11">
          <mxGeometry relative="1" as="geometry" />
        </mxCell>
        <mxCell id="YWpj-uhHsnXuFDOrqdvi-6" value="奖池创建" style="rounded=1;whiteSpace=wrap;html=1;fontSize=12;glass=0;strokeWidth=1;shadow=0;" vertex="1" parent="1">
          <mxGeometry x="530" y="150" width="120" height="40" as="geometry" />
        </mxCell>
        <mxCell id="YWpj-uhHsnXuFDOrqdvi-11" value="活动创建" style="rounded=1;whiteSpace=wrap;html=1;fontSize=12;glass=0;strokeWidth=1;shadow=0;" vertex="1" parent="1">
          <mxGeometry x="440" y="280" width="120" height="40" as="geometry" />
        </mxCell>
        <mxCell id="YWpj-uhHsnXuFDOrqdvi-13" value="奖池绑定工具" style="ellipse;whiteSpace=wrap;html=1;aspect=fixed;" vertex="1" parent="1">
          <mxGeometry x="720" y="130" width="80" height="80" as="geometry" />
        </mxCell>
        <mxCell id="YWpj-uhHsnXuFDOrqdvi-19" style="edgeStyle=orthogonalEdgeStyle;rounded=0;orthogonalLoop=1;jettySize=auto;html=1;exitX=0.5;exitY=1;exitDx=0;exitDy=0;" edge="1" parent="1" source="YWpj-uhHsnXuFDOrqdvi-15" target="YWpj-uhHsnXuFDOrqdvi-11">
          <mxGeometry relative="1" as="geometry" />
        </mxCell>
        <mxCell id="YWpj-uhHsnXuFDOrqdvi-15" value="规则组创建" style="rounded=1;whiteSpace=wrap;html=1;fontSize=12;glass=0;strokeWidth=1;shadow=0;" vertex="1" parent="1">
          <mxGeometry x="350" y="150" width="120" height="40" as="geometry" />
        </mxCell>
        <mxCell id="YWpj-uhHsnXuFDOrqdvi-20" value="&lt;font style=&quot;font-size: 18px&quot;&gt;&lt;b&gt;营销活动创建流程&lt;/b&gt;&lt;/font&gt;" style="rounded=0;whiteSpace=wrap;html=1;" vertex="1" parent="1">
          <mxGeometry x="10" y="-140" width="160" height="60" as="geometry" />
        </mxCell>
        <mxCell id="YWpj-uhHsnXuFDOrqdvi-21" value="&lt;font style=&quot;font-size: 14px&quot;&gt;&lt;b&gt;管理台操作流程&lt;/b&gt;&lt;/font&gt;" style="rounded=1;whiteSpace=wrap;html=1;" vertex="1" parent="1">
          <mxGeometry x="440" y="-60" width="120" height="60" as="geometry" />
        </mxCell>
      </root>
    </mxGraphModel>
  </diagram>
</mxfile>
